# AST/ASF file generated using VICON BodyLanguage
# -----------------------------------------------
:version 1.10
:name VICON
:units
  mass 1.0
  length 0.45
  angle deg
:documentation
   .ast/.asf automatically generated from VICON data using
   VICON BodyBuilder and BodyLanguage model FoxedUp or BRILLIANT.MOD
:root
   order TX TY TZ RX RY RZ
   axis XYZ
   position 0 0 0  
   orientation 0 0 0 
:bonedata
  begin
     id 1 
     name lhipjoint
     direction 0.660183 -0.676772 0.325788 
     length 2.75133 
     axis 0 0 0  XYZ
  end
  begin
     id 2 
     name lfemur
     direction 0.34202 -0.939693 0  
     length 7.70317  
     axis 0 0 20  XYZ
    dof rx ry rz
    limits (-160.0 20.0)
           (-70.0 70.0)
           (-60.0 70.0)
  end
  begin
     id 3 
     name ltibia
     direction 0.342105 -0.939662 0   
     length 7.18701   
     axis 0 0 20   XYZ
    dof rx
    limits (-10.0 170.0)
  end
  begin
     id 4 
     name lfoot
     direction 0.14163 -0.389126 0.910232   
     length 2.41719   
     axis -90 7.62852e-016 20   XYZ
    dof rx rz
    limits (-45.0 90.0)
           (-70.0 20.0)
  end
  begin
     id 5 
     name ltoes
     direction 1.53533e-011 -4.21926e-011 1   
     length 1.18611   
     axis -90 7.62852e-016 20   XYZ
    dof rx
    limits (-90.0 20.0)
  end
  begin
     id 6 
     name rhipjoint
     direction -0.6658 -0.67229 0.323631   
     length 2.76968  
     axis 0 0 0  XYZ 
  end
  begin
     id 7 
     name rfemur
     direction -0.34202 -0.939693 0   
     length 7.92547   
     axis 0 0 -20   XYZ
    dof rx ry rz
    limits (-160.0 20.0)
           (-70.0 70.0)
           (-70.0 60.0)
  end
  begin
     id 8 
     name rtibia
     direction -0.342022 -0.939692 0   
     length 7.22641   
     axis 0 0 -20   XYZ
    dof rx
    limits (-10.0 170.0)
 end
 begin
     id 9 
     name rfoot
     direction -0.105675 -0.29034 0.951071   
     length 2.48149  
     axis -90 -7.62852e-016 -20   XYZ
    dof rx rz
    limits (-45.0 90.0)
           (-20.0 70.0)
  end
  begin
     id 10 
     name rtoes
     direction -1.5349e-011 -4.21859e-011 1   
     length 1.23343   
     axis -90 -7.62852e-016 -20   XYZ
    dof rx
    limits (-90.0 20.0)
  end
  begin
     id 11 
     name lowerback
     direction 0.0104173 0.993624 -0.112266   
     length 2.00527   
     axis 0 0 0   XYZ
    dof rx ry rz
    limits (-20.0 45.0)
           (-30.0 30.0)
           (-30.0 30.0)
  end
  begin
     id 12 
     name upperback
     direction 0.00733149 0.999856 -0.0152913   
     length 2.01385   
     axis 0 0 0   XYZ
    dof rx ry rz
    limits (-20.0 45.0)
           (-30.0 30.0)
           (-30.0 30.0)
  end
  begin
     id 13 
     name thorax
     direction 0.0026304 0.999318 0.036841   
     length 2.03734   
     axis 0 0 0   XYZ
    dof rx ry rz
    limits (-20.0 45.0)
           (-30.0 30.0)
           (-30.0 30.0)
  end
  begin
     id 14 
     name lowerneck
     direction 0.0293154 0.998757 0.0403082   
     length 1.65303   
     axis 0 0 0   XYZ
    dof rx ry rz
    limits (-20.0 45.0)
           (-30.0 30.0)
           (-30.0 30.0)
  end
  begin
     id 15 
     name upperneck
     direction -0.0376619 0.998184 -0.0470083   
     length 1.60926   
     axis 0 0 0   XYZ
    dof rx ry rz
    limits (-20.0 45.0)
           (-30.0 30.0)
           (-30.0 30.0)
  end
  begin
     id 16
     name head
     direction -0.0170133 0.999635 -0.0209778  
     length 1.73625  
     axis 0 0 0   XYZ
    dof rx ry rz
    limits (-20.0 45.0)
           (-30.0 30.0)
           (-30.0 30.0)
  end
  begin
     id 17 
     name lclavicle
     direction 0.919857 0.39181 -0.0186333  
     length 3.75313  
     axis 0 0 0   XYZ
    dof ry rz
    limits (-20.0 10.0)
           (0.0 20.0)
  end
  begin
     id 18 
     name lhumerus
     direction 1 -4.48988e-011 1.44029e-027   
     length 5.49313   
     axis 180 -30 -90   XYZ
    dof rx ry rz
    limits (-60.0 90.0)
           (-90.0 90.0)
           (-90.0 90.0)
  end
  begin
     id 19
     name lradius
     direction 1 -4.48924e-011 7.46281e-027   
     length 3.29037   
     axis 180 -30 -90   XYZ
    dof rx
    limits (-10.0 170.0)
  end
  begin
     id 20
     name lwrist
     direction 1 -4.48955e-011 2.19879e-026   
     length 1.64519   
     axis -1.34358e-014 90 90   XYZ
    dof ry
    limits (-180.0 0.0)
 end
  begin
     id 21 
     name lhand
     direction 1 -4.48978e-011 4.39747e-026   
     length 0.729656   
     axis -2.80598e-014 90 90   XYZ
    dof rx rz
    limits (-90.0 90.0)
           (-45.0 45.0)
  end
  begin
     id 22 
     name lfingers
     direction 1 -4.49071e-011 8.79411e-026   
     length 0.588268   
     axis -5.61193e-014 90 90   XYZ
    dof rx
    limits (0.0 90.0)
  end
  begin
     id 23
     name lthumb
     direction 0.707107 -6.34817e-011 0.707107   
     length 0.844638   
     axis -90 45 -9.86923e-015   XYZ
    dof rx rz
    limits (-45.0 45.0)
           (-45.0 45.0)
  end
  begin
     id 24 
     name rclavicle
     direction -0.919898 0.388279 0.0550233   
     length 3.7171  
     axis 0 0 0   XYZ 
    dof ry rz
    limits (-10.0 20.0)
           (-20.0 0.0)
  end
  begin
     id 25 
     name rhumerus
     direction -1 -4.48968e-011 9.98372e-028  
     length 5.23684   
     axis 180 30 90   XYZ
    dof rx ry rz
    limits (-90.0 60.0)
           (-90.0 90.0)
           (-90.0 90.0)
  end
  begin
     id 26 
     name rradius
     direction -1 -4.48956e-011 1.01023e-026   
     length 3.38251   
     axis 180 30 90   XYZ
    dof rx
    limits (-10.0 170.0)
  end
  begin
     id 27 
     name rwrist
     direction -1 -4.4892e-011 2.19886e-026   
     length 1.69126   
     axis -1.34358e-014 -90 -90   XYZ
    dof ry
    limits (-180.0 0.0)
  end
  begin
     id 28
     name rhand
     direction -1 -4.49024e-011 4.39727e-026   
     length 0.691454   
     axis -2.80598e-014 -90 -90   XYZ
    dof rx rz
    limits (-90.0 90.0)
           (-45.0 45.0)
  end
  begin
     id 29
     name rfingers
     direction -1 -4.49097e-011 8.79388e-026   
     length 0.557468   
     axis -5.61193e-014 -90 -90   XYZ
    dof rx
    limits (0.0 90.0)
  end
  begin
     id 30
     name rthumb
     direction -0.707107 -6.34938e-011 0.707107   
     length 0.800416   
     axis -90 -45 9.86923e-015   XYZ
    dof rx rz
    limits (-45.0 45.0)
           (-45.0 45.0)
  end
:hierarchy
  begin
    root lhipjoint rhipjoint lowerback
    lhipjoint lfemur
    lfemur ltibia
    ltibia lfoot
    lfoot ltoes
    rhipjoint rfemur
    rfemur rtibia
    rtibia rfoot
    rfoot rtoes
    lowerback upperback
    upperback thorax
    thorax lowerneck lclavicle rclavicle
    lowerneck upperneck
    upperneck head
    lclavicle lhumerus
    lhumerus lradius
    lradius lwrist
    lwrist lhand lthumb
    lhand lfingers
    rclavicle rhumerus
    rhumerus rradius
    rradius rwrist
    rwrist rhand rthumb
    rhand rfingers
  end

#!OML:ASF H:\BabyWalks\Project 1\Capture day 1\Session 1\baby.ASF
:FULLY-SPECIFIED
:DEGREES
167
root -30.5576 17.4533 -1.93215 -35.7275 79.1497 -41.4151
lowerback 17.0329 0.229619 -1.28156
upperback 7.32712 0.52817 1.26285
thorax -1.75093 0.378544 1.9527
lowerneck -2.10445 4.04016 3.33133
upperneck 2.15108 5.37387 -3.4033
head 1.22011 2.66536 -1.52854
rclavicle -1.51076e-014 -8.74653e-015
rhumerus -43.8067 24.2088 -83.8972
rradius 45.7616
rwrist -4.50618
rhand -4.89663 -16.5903
rfingers 7.12502
rthumb 20.8927 -45.4852
lclavicle -1.51076e-014 -8.74653e-015
lhumerus -44.6868 -1.45447 80.0693
lradius 48.703
lwrist 4.28141
lhand -0.0487418 13.0874
lfingers 7.12502
lthumb 25.5437 41.3948
rfemur 6.10225 -0.082372 28.9524
rtibia 9.04659
rfoot -19.9583 -22.1624
rtoes 2.48905
lfemur -27.7456 5.40522 -12.7241
ltibia 43.7735
lfoot -20.4435 3.79659
ltoes -7.69132
168
root -30.497 17.4447 -1.93569 -36.0926 79.279 -41.9349
lowerback 16.9628 0.324299 -1.44078
upperback 7.29744 0.620757 1.12499
thorax -1.74937 0.422632 1.88114
lowerneck -2.21696 3.9237 3.32
upperneck 2.15014 5.20635 -3.07381
head 1.22142 2.58516 -1.42315
rclavicle -1.63003e-014 1.66979e-014
rhumerus -44.2547 24.5271 -84.0789
rradius 46.0986
rwrist -4.73484
rhand -4.95519 -16.4791
rfingers 7.12502
rthumb 20.8365 -45.3802
lclavicle -1.63003e-014 1.66979e-014
lhumerus -44.6123 -1.52933 79.9024
lradius 48.6498
lwrist 4.17555
lhand -0.051286 13.0402
lfingers 7.12502
lthumb 25.5412 41.348
rfemur 6.42672 -0.0931622 28.9407
rtibia 8.52632
rfoot -19.9531 -22.2789
rtoes 2.53912
lfemur -27.7852 5.37773 -12.7627
ltibia 43.911
lfoot -20.7859 3.82112
ltoes -8.28627
169
root -30.4348 17.4365 -1.93927 -36.3235 79.4011 -42.3373
lowerback 16.8787 0.43236 -1.61998
upperback 7.26101 0.727209 0.974127
thorax -1.74813 0.473245 1.80495
lowerneck -2.32921 3.80141 3.31402
upperneck 2.15418 5.03079 -2.72981
head 1.22436 2.50149 -1.31468
rclavicle -3.45885e-014 -7.95139e-015
rhumerus -44.7107 24.7829 -84.2505
rradius 46.4135
rwrist -4.93846
rhand -5.00213 -16.369
rfingers 7.12502
rthumb 20.7914 -45.2751
lclavicle -3.45885e-014 -7.95139e-015
lhumerus -44.5225 -1.61706 79.7238
lradius 48.5835
lwrist 4.06121
lhand -0.0575492 12.9856
lfingers 7.12502
lthumb 25.5352 41.2943
rfemur 6.74251 -0.0798134 28.9103
rtibia 7.9935
rfoot -19.9388 -22.3972
rtoes 2.55491
lfemur -27.8237 5.37367 -12.8152
ltibia 44.0303
lfoot -21.1286 3.83033
ltoes -8.89394
170
root -30.371 17.4287 -1.94287 -36.4451 79.5203 -42.6436
lowerback 16.7885 0.549821 -1.81386
upperback 7.21652 0.843201 0.808955
thorax -1.7525 0.52847 1.72053
lowerneck -2.43305 3.6721 3.31097
upperneck 2.15982 4.84569 -2.36634
head 1.22626 2.41377 -1.20135
rclavicle 1.19271e-014 -7.15625e-015
rhumerus -45.1763 24.9735 -84.4155
rradius 46.7068
rwrist -5.12322
rhand -5.04419 -16.2663
rfingers 7.12502
rthumb 20.751 -45.1768
lclavicle 1.19271e-014 -7.15625e-015
lhumerus -44.4188 -1.71962 79.5303
lradius 48.5012
lwrist 3.93649
lhand -0.0716295 12.9033
lfingers 7.12502
lthumb 25.5218 41.2139
rfemur 7.05346 -0.0514586 28.8617
rtibia 7.44611
rfoot -19.9112 -22.514
rtoes 2.5428
lfemur -27.86 5.39129 -12.8816
ltibia 44.1333
lfoot -21.4717 3.81568
ltoes -9.48858
171
root -30.3057 17.4213 -1.94642 -36.444 79.6396 -42.8393
lowerback 16.6939 0.675876 -2.02672
upperback 7.16371 0.967134 0.62972
thorax -1.76361 0.587493 1.63087
lowerneck -2.53272 3.53695 3.31299
upperneck 2.17003 4.65257 -1.98605
head 1.2291 2.32272 -1.08428
rclavicle 3.57812e-015 -2.62396e-014
rhumerus -45.6408 25.097 -84.5714
rradius 46.9663
rwrist -5.30193
rhand -5.07902 -16.182
rfingers 7.12502
rthumb 20.7175 -45.0962
lclavicle 3.57812e-015 -2.62396e-014
lhumerus -44.2988 -1.83953 79.3241
lradius 48.4014
lwrist 3.80613
lhand -0.089449 12.8029
lfingers 7.12502
lthumb 25.5047 41.1159
rfemur 7.36027 -0.00845717 28.7916
rtibia 6.88667
rfoot -19.8726 -22.6304
rtoes 2.49913
lfemur -27.8937 5.428 -12.9664
ltibia 44.2206
lfoot -21.8149 3.78242
ltoes -10.0628
172
root -30.2391 17.4137 -1.94969 -36.4055 79.7721 -42.9997
lowerback 16.6041 0.803973 -2.25505
upperback 7.10736 1.09153 0.4391
thorax -1.78086 0.646852 1.53805
lowerneck -2.62552 3.3963 3.32172
upperneck 2.18062 4.45191 -1.58975
head 1.2313 2.22865 -0.964072
rclavicle 2.46493e-014 2.38542e-015
rhumerus -46.0988 25.1546 -84.7172
rradius 47.1919
rwrist -5.48313
rhand -5.10657 -16.1287
rfingers 7.12502
rthumb 20.691 -45.0458
lclavicle 2.46493e-014 2.38542e-015
lhumerus -44.1576 -1.97963 79.1052
lradius 48.2895
lwrist 3.67908
lhand -0.100914 12.6971
lfingers 7.12502
lthumb 25.4937 41.0117
rfemur 7.66905 0.0286143 28.7051
rtibia 6.32776
rfoot -19.8289 -22.749
rtoes 2.42566
lfemur -27.9189 5.46752 -13.0664
ltibia 44.2937
lfoot -22.1388 3.72402
ltoes -10.5611
173
root -30.1708 17.4062 -1.95252 -36.3439 79.9277 -43.1315
lowerback 16.5206 0.929955 -2.50425
upperback 7.0525 1.21059 0.238161
thorax -1.79951 0.703673 1.44726
lowerneck -2.71883 3.25089 3.32985
upperneck 2.19469 4.24467 -1.17366
head 1.23492 2.13202 -0.838151
rclavicle 1.51076e-014 -1.11319e-014
rhumerus -46.5432 25.1545 -84.8516
rradius 47.3843
rwrist -5.66587
rhand -5.1257 -16.1051
rfingers 7.12502
rthumb 20.6726 -45.0241
lclavicle 1.51076e-014 -1.11319e-014
lhumerus -43.992 -2.13379 78.8738
lradius 48.1704
lwrist 3.56483
lhand -0.101857 12.6063
lfingers 7.12502
lthumb 25.4928 40.921
rfemur 7.97619 0.0498495 28.5975
rtibia 5.79731
rfoot -19.7953 -22.8681
rtoes 2.32576
lfemur -27.9271 5.50406 -13.1872
ltibia 44.3515
lfoot -22.465 3.63389
ltoes -11.0017
174
root -30.1009 17.3987 -1.95497 -36.2884 80.1103 -43.2594
lowerback 16.4497 1.04995 -2.77194
upperback 7.00031 1.3197 0.0285939
thorax -1.82152 0.755803 1.35956
lowerneck -2.80653 3.10152 3.34301
upperneck 2.20754 4.03212 -0.746347
head 1.23799 2.03343 -0.710263
rclavicle -2.62396e-014 5.56597e-015
rhumerus -46.9683 25.1073 -84.9779
rradius 47.5341
rwrist -5.85116
rhand -5.14474 -16.112
rfingers 7.12502
rthumb 20.6543 -45.033
lclavicle -2.62396e-014 5.56597e-015
lhumerus -43.803 -2.30168 78.6311
lradius 48.0536
lwrist 3.47483
lhand -0.0775696 12.5387
lfingers 7.12502
lthumb 25.5161 40.8501
rfemur 8.26389 0.0485383 28.4711
rtibia 5.34106
rfoot -19.7925 -22.9865
rtoes 2.2087
lfemur -27.9147 5.52792 -13.3281
ltibia 44.3944
lfoot -22.776 3.51658
ltoes -11.3468
175
root -30.0295 17.3912 -1.95722 -36.2492 80.319 -43.3927
lowerback 16.3976 1.16158 -3.05487
upperback 6.94924 1.41595 -0.186986
thorax -1.85162 0.80192 1.27614
lowerneck -2.88891 2.95035 3.35578
upperneck 2.22029 3.81742 -0.309352
head 1.24097 1.93437 -0.579863
rclavicle -4.37326e-014 -7.95139e-015
rhumerus -47.3741 25.0227 -85.0957
rradius 47.6464
rwrist -6.03384
rhand -5.15077 -16.1477
rfingers 7.12502
rthumb 20.6485 -45.0694
lclavicle -4.37326e-014 -7.95139e-015
lhumerus -43.5932 -2.4776 78.3782
lradius 47.9432
lwrist 3.40736
lhand -0.0223725 12.5016
lfingers 7.12502
lthumb 25.5689 40.8055
rfemur 8.48662 0.0241999 28.3287
rtibia 5.05031
rfoot -19.8583 -23.109
rtoes 2.04783
lfemur -27.8817 5.5345 -13.4875
ltibia 44.4207
lfoot -23.0549 3.36895
ltoes -11.5558
176
root -29.957 17.3838 -1.9592 -36.2864 80.5586 -43.5832
lowerback 16.373 1.26004 -3.34756
upperback 6.90481 1.49401 -0.405781
thorax -1.88836 0.839606 1.19753
lowerneck -2.97099 2.79786 3.36586
upperneck 2.23226 3.60119 0.134632
head 1.24462 1.83507 -0.447295
rclavicle 0 -1.35174e-014
rhumerus -47.7569 24.9079 -85.2044
rradius 47.7285
rwrist -6.20607
rhand -5.14828 -16.207
rfingers 7.12502
rthumb 20.6509 -45.1284
lclavicle 0 -1.35174e-014
lhumerus -43.3573 -2.65684 78.116
lradius 47.8342
lwrist 3.34488
lhand 0.0467727 12.4674
lfingers 7.12502
lthumb 25.6352 40.7617
rfemur 8.59278 -0.0340709 28.1779
rtibia 5.05161
rfoot -20.0587 -23.2341
rtoes 1.84765
lfemur -27.821 5.5137 -13.6607
ltibia 44.4292
lfoot -23.3057 3.19057
ltoes -11.6139
177
root -29.8839 17.3771 -1.96163 -36.3066 80.7996 -43.753
lowerback 16.3629 1.3546 -3.63979
upperback 6.86189 1.56708 -0.625375
thorax -1.93076 0.875321 1.11825
lowerneck -3.04435 2.64383 3.37297
upperneck 2.23463 3.38381 0.576898
head 1.24497 1.73543 -0.315316
rclavicle 3.18055e-015 2.8625e-014
rhumerus -48.1196 24.7715 -85.3014
rradius 47.7854
rwrist -6.3639
rhand -5.14588 -16.2786
rfingers 7.12502
rthumb 20.6532 -45.1998
lclavicle 3.18055e-015 2.8625e-014
lhumerus -43.0973 -2.8376 77.8496
lradius 47.7313
lwrist 3.28569
lhand 0.12805 12.4396
lfingers 7.12502
lthumb 25.713 40.7227
rfemur 8.50609 -0.0926278 28.0241
rtibia 5.44907
rfoot -20.4148 -23.3717
rtoes 1.55967
lfemur -27.7451 5.48505 -13.8414
ltibia 44.4177
lfoot -23.5367 2.99757
ltoes -11.5832
178
root -29.8107 17.3716 -1.96487 -36.3046 81.0414 -43.896
lowerback 16.375 1.44264 -3.92488
upperback 6.82002 1.6322 -0.845293
thorax -1.98316 0.907805 1.03527
lowerneck -3.11231 2.48913 3.37287
upperneck 2.22805 3.16663 1.01347
head 1.24284 1.63592 -0.184304
rclavicle 3.97569e-015 4.77083e-015
rhumerus -48.459 24.621 -85.3858
rradius 47.8228
rwrist -6.50085
rhand -5.13537 -16.3568
rfingers 7.12502
rthumb 20.6633 -45.2769
lclavicle 3.97569e-015 4.77083e-015
lhumerus -42.8155 -3.0157 77.5814
lradius 47.631
lwrist 3.20208
lhand 0.216428 12.428
lfingers 7.12502
lthumb 25.7977 40.6988
rfemur 8.21089 -0.150576 27.8631
rtibia 6.26717
rfoot -20.9166 -23.5278
rtoes 1.14689
lfemur -27.6547 5.44401 -14.031
ltibia 44.3844
lfoot -23.7382 2.79085
ltoes -11.4583
179
root -29.7375 17.3672 -1.969 -36.2853 81.2698 -44.0173
lowerback 16.4083 1.52813 -4.19758
upperback 6.78091 1.69537 -1.05847
thorax -2.04363 0.939953 0.951953
lowerneck -3.1776 2.33426 3.36826
upperneck 2.21084 2.95041 1.43175
head 1.23849 1.53661 -0.0584719
rclavicle 7.15625e-015 2.70347e-014
rhumerus -48.773 24.4627 -85.4516
rradius 47.8447
rwrist -6.61987
rhand -5.12837 -16.4338
rfingers 7.12502
rthumb 20.6701 -45.3531
lclavicle 7.15625e-015 2.70347e-014
lhumerus -42.5076 -3.18738 77.3175
lradius 47.5329
lwrist 3.08957
lhand 0.306185 12.4874
lfingers 7.12502
lthumb 25.8836 40.7457
rfemur 7.71773 -0.197154 27.7001
rtibia 7.47958
rfoot -21.531 -23.7084
rtoes 0.604949
lfemur -27.5456 5.39442 -14.2168
ltibia 44.3242
lfoot -23.9197 2.58346
ltoes -11.2781
